<svg id="Layer_1" data-name="Layer 1" xmlns="http://www.w3.org/2000/svg" viewBox="0 0 1141.94 1772.24"><defs><style>.cls-1{fill:#245624;}.cls-2{fill:#2a6b2a;}.cls-3{fill:#328232;}.cls-4{fill:#358f35;}.cls-5{fill:#328732;}.cls-6{fill:#37a037;}</style></defs><title>1</title><path class="cls-1" d="M267.48,536C250,590.13,186.3,618,186.3,618S151,558.12,168.52,504s81.18-82,81.18-82S285,481.88,267.48,536Z" transform="translate(188.54 183.01)"/><path class="cls-1" d="M191.18,489.43c-30,48.33-98.5,60.08-98.5,60.08S72.82,482.9,102.82,434.57s98.5-60.08,98.5-60.08S221.18,441.1,191.18,489.43Z" transform="translate(188.54 183.01)"/><path class="cls-1" d="M322.47,590.53C308.76,645.74,247.19,678,247.19,678s-39.36-57.29-25.66-112.5S296.81,478,296.81,478,336.17,535.32,322.47,590.53Z" transform="translate(188.54 183.01)"/><path class="cls-1" d="M392.34,617.29c-9.07,56.16-67.75,93.39-67.75,93.39s-44-53.81-34.93-110,67.75-93.39,67.75-93.39S401.4,561.13,392.34,617.29Z" transform="translate(188.54 183.01)"/><path class="cls-1" d="M353.47,619.53C339.76,674.74,278.19,707,278.19,707s-39.36-57.29-25.66-112.5S327.81,507,327.81,507,367.17,564.32,353.47,619.53Z" transform="translate(188.54 183.01)"/><path class="cls-1" d="M477.94,601.57c2.67,56.82-47.12,105.32-47.12,105.32s-54.1-43.63-56.76-100.46,47.12-105.32,47.12-105.32S475.28,544.74,477.94,601.57Z" transform="translate(188.54 183.01)"/><path class="cls-1" d="M560.39,563c20.82,52.93-10.69,114.88-10.69,114.88S484.43,654,463.61,601,474.3,486.15,474.3,486.15,539.57,510,560.39,563Z" transform="translate(188.54 183.01)"/><path class="cls-1" d="M607.39,559c20.82,52.93-10.69,114.88-10.69,114.88S531.43,650,510.61,597,521.3,482.15,521.3,482.15,586.57,506,607.39,559Z" transform="translate(188.54 183.01)"/><path class="cls-1" d="M641.82,467.56c36.58,43.57,26.41,112.32,26.41,112.32S598.76,578,562.18,534.44s-26.41-112.32-26.41-112.32S605.24,424,641.82,467.56Z" transform="translate(188.54 183.01)"/><path class="cls-1" d="M675.39,459c20.82,52.93-10.69,114.88-10.69,114.88S599.43,550,578.61,497,589.3,382.15,589.3,382.15,654.57,406,675.39,459Z" transform="translate(188.54 183.01)"/><path class="cls-1" d="M126.77,464.63C80.13,497.2,12.55,481,12.55,481s8-69,54.68-101.6S181.45,363,181.45,363,173.41,432.07,126.77,464.63Z" transform="translate(188.54 183.01)"/><path class="cls-1" d="M115.77,410.63C69.13,443.2,1.55,427,1.55,427s8-69,54.68-101.6S170.45,309,170.45,309,162.41,378.07,115.77,410.63Z" transform="translate(188.54 183.01)"/><path class="cls-1" d="M511.58,73.67c17.51-54.13,81.18-82,81.18-82s35.28,59.88,17.77,114-81.17,82-81.17,82S494.07,127.79,511.58,73.67Z" transform="translate(188.54 183.01)"/><path class="cls-1" d="M587.88,120.24c30-48.33,98.5-60.08,98.5-60.08s19.86,66.61-10.14,114.93-98.51,60.09-98.51,60.09S557.87,168.57,587.88,120.24Z" transform="translate(188.54 183.01)"/><path class="cls-1" d="M456.59,19.14c13.7-55.21,75.28-87.44,75.28-87.44S571.23-11,557.52,44.2s-75.28,87.44-75.28,87.44S442.88,74.35,456.59,19.14Z" transform="translate(188.54 183.01)"/><path class="cls-1" d="M386.72,20.38C395.79-35.78,454.47-73,454.47-73s44,53.81,34.92,110-67.75,93.39-67.75,93.39S377.66,76.54,386.72,20.38Z" transform="translate(188.54 183.01)"/><path class="cls-1" d="M425.59,18.14c13.7-55.21,75.28-87.44,75.28-87.44S540.23-12,526.52,43.2s-75.28,87.44-75.28,87.44S411.88,73.35,425.59,18.14Z" transform="translate(188.54 183.01)"/><path class="cls-1" d="M309.11,43.1c-2.66-56.82,47.12-105.32,47.12-105.32S410.34-18.59,413,38.23s-47.12,105.33-47.12,105.33S311.78,99.93,309.11,43.1Z" transform="translate(188.54 183.01)"/><path class="cls-1" d="M218.67,74.7C197.84,21.77,229.35-40.18,229.35-40.18s65.28,23.88,86.1,76.82-10.69,114.88-10.69,114.88S239.49,127.64,218.67,74.7Z" transform="translate(188.54 183.01)"/><path class="cls-1" d="M171.67,78.7C150.84,25.77,182.35-36.18,182.35-36.18s65.28,23.88,86.1,76.82-10.69,114.88-10.69,114.88S192.49,131.64,171.67,78.7Z" transform="translate(188.54 183.01)"/><path class="cls-1" d="M137.23,142.11C100.65,98.54,110.82,29.79,110.82,29.79s69.48,1.88,106.06,45.44,26.41,112.32,26.41,112.32S173.81,185.67,137.23,142.11Z" transform="translate(188.54 183.01)"/><path class="cls-1" d="M103.67,150.7C82.84,97.77,114.35,35.82,114.35,35.82s65.28,23.88,86.1,76.82-10.69,114.88-10.69,114.88S124.49,203.64,103.67,150.7Z" transform="translate(188.54 183.01)"/><path class="cls-1" d="M652.29,145c46.64-32.56,114.22-16.33,114.22-16.33s-8,69-54.68,101.6-114.22,16.34-114.22,16.34S605.65,177.6,652.29,145Z" transform="translate(188.54 183.01)"/><path class="cls-1" d="M663.29,199c46.64-32.56,114.22-16.33,114.22-16.33s-8,69-54.68,101.6-114.22,16.34-114.22,16.34S616.65,231.6,663.29,199Z" transform="translate(188.54 183.01)"/><path class="cls-1" d="M718.18,270.91c56.74,4.07,99,59.23,99,59.23s-49.71,48.57-106.45,44.5-99-59.23-99-59.23S661.44,266.84,718.18,270.91Z" transform="translate(188.54 183.01)"/><path class="cls-1" d="M726.2,339.45c50.53,26.13,67.61,93.5,67.61,93.5S729,458,678.43,431.83s-67.6-93.5-67.6-93.5S675.67,313.32,726.2,339.45Z" transform="translate(188.54 183.01)"/><path class="cls-1" d="M683.52,374.32c50.53,26.13,67.61,93.5,67.61,93.5s-64.85,25-115.38-1.12-67.6-93.51-67.6-93.51S633,348.19,683.52,374.32Z" transform="translate(188.54 183.01)"/><path class="cls-1" d="M108.18,247.2c-54.54-16.17-84-79.13-84-79.13s59-36.75,113.53-20.58,84,79.14,84,79.14S162.72,263.37,108.18,247.2Z" transform="translate(188.54 183.01)"/><path class="cls-1" d="M82.41,286.71c-54.54-16.18-84-79.14-84-79.14S57.43,170.82,112,187s84,79.13,84,79.13S136.94,302.88,82.41,286.71Z" transform="translate(188.54 183.01)"/><path class="cls-1" d="M133.25,370.1c-56.85,2-104.78-48.31-104.78-48.31s44.25-53.61,101.1-55.62,104.77,48.31,104.77,48.31S190.1,368.08,133.25,370.1Z" transform="translate(188.54 183.01)"/><path class="cls-1" d="M108.37,405.85c-54.54-16.17-84-79.14-84-79.14s59-36.74,113.53-20.57,84,79.13,84,79.13S162.91,422,108.37,405.85Z" transform="translate(188.54 183.01)"/><path class="cls-2" d="M326.47,669.53C312.76,724.74,251.19,757,251.19,757s-39.36-57.29-25.66-112.5S300.81,557,300.81,557,340.17,614.32,326.47,669.53Z" transform="translate(188.54 183.01)"/><path class="cls-2" d="M392.47,713.53C378.76,768.74,317.19,801,317.19,801s-39.36-57.29-25.66-112.5S366.81,601,366.81,601,406.17,658.32,392.47,713.53Z" transform="translate(188.54 183.01)"/><path class="cls-3" d="M320.86,782.47C291.4,853.13,201.79,883,201.79,883S160,798.33,189.41,727.67,308.47,627.12,308.47,627.12,350.31,711.81,320.86,782.47Z" transform="translate(188.54 183.01)"/><path class="cls-4" d="M308.47,627.12s41.84,84.69,12.39,155.35S201.79,883,201.79,883" transform="translate(188.54 183.01)"/><path class="cls-2" d="M699.5,518.09c42.56,37.75,42.56,107.25,42.56,107.25s-69,8.31-111.56-29.43-42.56-107.25-42.56-107.25S656.94,480.35,699.5,518.09Z" transform="translate(188.54 183.01)"/><path class="cls-4" d="M256,980.25c37.71-74-.57-169.08-.57-169.08S156,836.1,118.29,910.11s.57,169.08.57,169.08S218.27,1054.26,256,980.25Z" transform="translate(188.54 183.01)"/><path class="cls-3" d="M118.86,1079.19s99.41-24.93,137.11-98.94-.57-169.08-.57-169.08" transform="translate(188.54 183.01)"/><path class="cls-2" d="M736.5,497.09c42.56,37.75,42.56,107.25,42.56,107.25s-69,8.31-111.56-29.43-42.56-107.25-42.56-107.25S693.94,459.35,736.5,497.09Z" transform="translate(188.54 183.01)"/><path class="cls-2" d="M742.06,423.22c47.89,30.69,58.66,99.36,58.66,99.36s-66.89,18.89-114.78-11.8-58.66-99.36-58.66-99.36S694.17,392.53,742.06,423.22Z" transform="translate(188.54 183.01)"/><path class="cls-2" d="M806.06,392.22c47.89,30.69,58.66,99.36,58.66,99.36s-66.89,18.89-114.78-11.8-58.66-99.36-58.66-99.36S758.17,361.53,806.06,392.22Z" transform="translate(188.54 183.01)"/><path class="cls-2" d="M804.31,333.78c39.62,40.82,34.43,110.13,34.43,110.13s-69.44,3.13-109-37.69-34.43-110.13-34.43-110.13S764.7,293,804.31,333.78Z" transform="translate(188.54 183.01)"/><path class="cls-2" d="M755.48,239.29c56.57,6,96.95,62.57,96.95,62.57s-51.34,46.85-107.91,40.85-96.95-62.57-96.95-62.57S698.91,233.29,755.48,239.29Z" transform="translate(188.54 183.01)"/><path class="cls-2" d="M240.24,667.68c-34.65,45.11-104,50-104,50s-13.15-68.24,21.5-113.36,104-50,104-50S274.89,622.56,240.24,667.68Z" transform="translate(188.54 183.01)"/><path class="cls-2" d="M231.92,602.19C209.83,654.62,144,676.92,144,676.92s-30-62.69-7.92-115.11S224,487.08,224,487.08,254,549.77,231.92,602.19Z" transform="translate(188.54 183.01)"/><path class="cls-2" d="M201.32,595.09c-14.32,55.06-76.26,86.59-76.26,86.59S86.35,624,100.68,568.91s76.26-86.59,76.26-86.59S215.65,540,201.32,595.09Z" transform="translate(188.54 183.01)"/><path class="cls-2" d="M104.15,72.78C61.59,35,61.59-34.46,61.59-34.46S130.6-42.77,173.16-5s42.56,107.24,42.56,107.24S146.71,110.52,104.15,72.78Z" transform="translate(188.54 183.01)"/><path class="cls-2" d="M98.6,146.66C50.7,116,39.94,47.3,39.94,47.3s66.88-18.9,114.77,11.79,58.66,99.36,58.66,99.36S146.49,177.35,98.6,146.66Z" transform="translate(188.54 183.01)"/><path class="cls-2" d="M34.6,177.66C-13.3,147-24.06,78.3-24.06,78.3S42.82,59.4,90.71,90.09s58.66,99.36,58.66,99.36S82.49,208.35,34.6,177.66Z" transform="translate(188.54 183.01)"/><path class="cls-2" d="M36.34,236.09C-3.28,195.27,1.92,126,1.92,126s69.43-3.12,109.05,37.7,34.42,110.13,34.42,110.13S76,276.91,36.34,236.09Z" transform="translate(188.54 183.01)"/><path class="cls-2" d="M85.17,330.59C28.6,324.59-11.77,268-11.77,268s51.34-46.84,107.91-40.85,96.94,62.58,96.94,62.58S141.74,336.58,85.17,330.59Z" transform="translate(188.54 183.01)"/><path class="cls-2" d="M745.92,219c-49.51,28-115.25,5.45-115.25,5.45s14.54-68,64.05-96S810,123.05,810,123.05,795.43,191,745.92,219Z" transform="translate(188.54 183.01)"/><path class="cls-2" d="M688,155.13C631.4,161,580.18,114,580.18,114s40.52-56.46,97.1-62.31,107.8,41.12,107.8,41.12S744.56,149.28,688,155.13Z" transform="translate(188.54 183.01)"/><path class="cls-2" d="M729.81,104.07c-53.25,20-114.7-12.47-114.7-12.47S640,26.71,693.25,6.71,808,19.18,808,19.18,783.07,84.08,729.81,104.07Z" transform="translate(188.54 183.01)"/><path class="cls-2" d="M713.93,77c-49.82,27.45-115.3,4.16-115.3,4.16s15.3-67.8,65.12-95.25,115.31-4.15,115.31-4.15S763.76,49.53,713.93,77Z" transform="translate(188.54 183.01)"/><path class="cls-2" d="M766.34,299.76c-56.88,0-103-52-103-52s46.09-52,103-52,103,52,103,52S823.23,299.74,766.34,299.76Z" transform="translate(188.54 183.01)"/><path class="cls-2" d="M649.93,43c-49.82,27.45-115.3,4.16-115.3,4.16s15.3-67.8,65.12-95.25,115.31-4.15,115.31-4.15S699.76,15.53,649.93,43Z" transform="translate(188.54 183.01)"/><path class="cls-2" d="M480.51-33c-16,54.58-78.94,84.15-78.94,84.15S364.69-7.73,380.73-62.3s78.95-84.15,78.95-84.15S496.56-87.54,480.51-33Z" transform="translate(188.54 183.01)"/><path class="cls-2" d="M418-86.63c6.5,56.52-39.88,108.27-39.88,108.27s-56.93-39.87-63.43-96.38S354.6-183,354.6-183,411.53-143.14,418-86.63Z" transform="translate(188.54 183.01)"/><path class="cls-2" d="M362.3-40.3C368.8,16.21,322.41,68,322.41,68S265.48,28.1,259-28.42s39.89-108.27,39.89-108.27S355.8-96.82,362.3-40.3Z" transform="translate(188.54 183.01)"/><path class="cls-3" d="M559,749.71c7.91,76.14-56.5,145.23-56.5,145.23s-77.24-54.37-85.15-130.51S473.8,619.19,473.8,619.19,551,673.56,559,749.71Z" transform="translate(188.54 183.01)"/><path class="cls-4" d="M473.8,619.19S551,673.56,559,749.71s-56.5,145.23-56.5,145.23" transform="translate(188.54 183.01)"/><path class="cls-5" d="M780,67.92c-53.6,54.67-147.89,49.13-147.89,49.13s-7.4-94.17,46.2-148.83S826.17-80.91,826.17-80.91,833.57,13.25,780,67.92Z" transform="translate(188.54 183.01)"/><path class="cls-6" d="M826.17-80.91S833.57,13.25,780,67.92s-147.89,49.13-147.89,49.13" transform="translate(188.54 183.01)"/><path class="cls-5" d="M820.21,199.09C743.85,204.55,676.87,138,676.87,138S733.69,62.5,810.06,57,953.4,118.19,953.4,118.19,896.57,193.64,820.21,199.09Z" transform="translate(188.54 183.01)"/><path class="cls-6" d="M953.4,118.19s-56.83,75.45-133.19,80.9S676.87,138,676.87,138" transform="translate(188.54 183.01)"/><path class="cls-5" d="M10.41,98C-50.84,52.1-57.76-42.1-57.76-42.1S34.61-61.83,95.86-15.9,164,124.24,164,124.24,71.65,144,10.41,98Z" transform="translate(188.54 183.01)"/><path class="cls-6" d="M164,124.24S71.65,144,10.41,98-57.76-42.1-57.76-42.1" transform="translate(188.54 183.01)"/><path class="cls-5" d="M89.62,2.06C44.48-59.77,65.39-151.88,65.39-151.88s94.1,8.13,139.25,70S228.88,72,228.88,72,134.77,63.89,89.62,2.06Z" transform="translate(188.54 183.01)"/><path class="cls-6" d="M228.88,72s-94.11-8.13-139.26-70S65.39-151.88,65.39-151.88" transform="translate(188.54 183.01)"/><path class="cls-5" d="M-67.46,266.76c-74.93-15.68-121.08-98.09-121.08-98.09s75.33-57,150.26-41.3,121.09,98.1,121.09,98.1S7.47,282.45-67.46,266.76Z" transform="translate(188.54 183.01)"/><path class="cls-6" d="M82.81,225.47s-75.34,57-150.27,41.29-121.08-98.09-121.08-98.09" transform="translate(188.54 183.01)"/><path class="cls-5" d="M-17,399.73C-90.82,420-169.53,367.8-169.53,367.8s41-85.11,114.79-105.39S97.79,294.34,97.79,294.34,56.82,379.45-17,399.73Z" transform="translate(188.54 183.01)"/><path class="cls-6" d="M97.79,294.34S56.82,379.45-17,399.73-169.53,367.8-169.53,367.8" transform="translate(188.54 183.01)"/><path class="cls-5" d="M34.39,501.51c-54.23,54-148.45,47.4-148.45,47.4s-6.3-94.24,47.93-148.28,148.45-47.4,148.45-47.4S88.62,447.47,34.39,501.51Z" transform="translate(188.54 183.01)"/><path class="cls-6" d="M82.32,353.23s6.3,94.24-47.93,148.28-148.45,47.4-148.45,47.4" transform="translate(188.54 183.01)"/><path class="cls-5" d="M119.4,543.38C73.92,605-20.23,612.56-20.23,612.56s-20.4-92.22,25.09-153.8,139.63-69.19,139.63-69.19S164.89,481.8,119.4,543.38Z" transform="translate(188.54 183.01)"/><path class="cls-6" d="M144.49,389.57s20.4,92.23-25.09,153.81S-20.23,612.56-20.23,612.56" transform="translate(188.54 183.01)"/><path class="cls-3" d="M170.87,662.73C139,732.33,48.39,759.09,48.39,759.09S9.51,673,41.4,603.41s122.47-96.36,122.47-96.36S202.76,593.13,170.87,662.73Z" transform="translate(188.54 183.01)"/><path class="cls-4" d="M163.87,507.05s38.89,86.08,7,155.68S48.39,759.09,48.39,759.09" transform="translate(188.54 183.01)"/><path class="cls-5" d="M775.62,595.51c40.39,65,12.63,155.32,12.63,155.32S695,735.67,654.64,670.63,642,515.31,642,515.31,735.24,530.47,775.62,595.51Z" transform="translate(188.54 183.01)"/><path class="cls-6" d="M642,515.31s93.23,15.16,133.61,80.2,12.63,155.32,12.63,155.32" transform="translate(188.54 183.01)"/><path class="cls-5" d="M675.31,601.55c54.32,54,48.16,148.21,48.16,148.21S629.26,756.54,575,702.59s-48.16-148.21-48.16-148.21S621,547.6,675.31,601.55Z" transform="translate(188.54 183.01)"/><path class="cls-6" d="M526.79,554.38S621,547.6,675.31,601.55s48.16,148.21,48.16,148.21" transform="translate(188.54 183.01)"/><path class="cls-5" d="M642.58,707.75c34.75,68.21-.53,155.83-.53,155.83s-91.62-23-126.37-91.19.53-155.83.53-155.83S607.83,639.53,642.58,707.75Z" transform="translate(188.54 183.01)"/><path class="cls-6" d="M516.21,616.56s91.62,23,126.37,91.19-.53,155.83-.53,155.83" transform="translate(188.54 183.01)"/><path class="cls-5" d="M463.89,789c-8.57,76.08-86.28,129.77-86.28,129.77S313.8,849.17,322.37,773.1s86.28-129.78,86.28-129.78S472.46,713,463.89,789Z" transform="translate(188.54 183.01)"/><path class="cls-6" d="M408.65,643.32S472.46,713,463.89,789s-86.28,129.77-86.28,129.77" transform="translate(188.54 183.01)"/><path class="cls-5" d="M814.72,399c56,52.24,52.75,146.64,52.75,146.64s-94,9.71-149.92-42.53-52.76-146.63-52.76-146.63S758.75,346.78,814.72,399Z" transform="translate(188.54 183.01)"/><path class="cls-6" d="M664.79,356.49s94-9.71,149.93,42.52,52.75,146.64,52.75,146.64" transform="translate(188.54 183.01)"/><path class="cls-5" d="M598.17-10.8C564.7,58.05,473.53,82.74,473.53,82.74s-36.91-86.95-3.44-155.8S594.74-166.6,594.74-166.6,631.64-79.65,598.17-10.8Z" transform="translate(188.54 183.01)"/><path class="cls-6" d="M594.74-166.6s36.9,86.95,3.43,155.8S473.53,82.74,473.53,82.74" transform="translate(188.54 183.01)"/><path class="cls-5" d="M391.89,879c-8.57,76.08-86.28,129.77-86.28,129.77S241.8,939.17,250.37,863.1s86.28-129.78,86.28-129.78S400.46,803,391.89,879Z" transform="translate(188.54 183.01)"/><path class="cls-6" d="M336.65,733.32S400.46,803,391.89,879s-86.28,129.77-86.28,129.77" transform="translate(188.54 183.01)"/><path class="cls-5" d="M81.34,749.75c-58.73,49.12-152,34.31-152,34.31S-68.75,689.62-10,640.51s152-34.3,152-34.3S140.07,700.64,81.34,749.75Z" transform="translate(188.54 183.01)"/><path class="cls-6" d="M142,606.21s-1.93,94.43-60.66,143.54-152,34.31-152,34.31" transform="translate(188.54 183.01)"/><path class="cls-5" d="M254.37,771.28c-14.4,75.19-96,122.76-96,122.76S100.1,819.69,114.49,744.5s96-122.75,96-122.75S268.76,696.09,254.37,771.28Z" transform="translate(188.54 183.01)"/><path class="cls-6" d="M210.49,621.75s58.27,74.34,43.88,149.53-96,122.76-96,122.76" transform="translate(188.54 183.01)"/><path class="cls-3" d="M240.59,1345.22c-20.75,120.24-149.41,198.41-149.41,198.41s-95-116.77-74.27-237S166.32,1108.2,166.32,1108.2,261.34,1225,240.59,1345.22Z" transform="translate(188.54 183.01)"/><path class="cls-4" d="M166.32,1108.2s95,116.77,74.27,237S91.18,1543.63,91.18,1543.63" transform="translate(188.54 183.01)"/><path class="cls-5" d="M-16.26,705.71c-67.88,35.4-155.84,1-155.84,1s22.1-91.84,90-127.24,155.84-1,155.84-1S51.62,670.31-16.26,705.71Z" transform="translate(188.54 183.01)"/><path class="cls-6" d="M73.72,578.47s-22.1,91.84-90,127.24-155.84,1-155.84,1" transform="translate(188.54 183.01)"/><path class="cls-3" d="M724,911.71c7.91,76.14-56.5,145.23-56.5,145.23s-77.24-54.37-85.15-130.51S638.8,781.19,638.8,781.19,716,835.56,724,911.71Z" transform="translate(188.54 183.01)"/><path class="cls-4" d="M638.8,781.19S716,835.56,724,911.71s-56.5,145.23-56.5,145.23" transform="translate(188.54 183.01)"/><path class="cls-5" d="M787.05,777c31.29,69.87-8.33,155.61-8.33,155.61s-90.36-27.53-121.65-97.4,8.33-155.62,8.33-155.62S755.76,707.13,787.05,777Z" transform="translate(188.54 183.01)"/><path class="cls-6" d="M662.51,677.45s90.35,27.53,121.64,97.4-8.33,155.61-8.33,155.61" transform="translate(188.54 183.01)"/><path class="cls-3" d="M805.89,1000c-8.57,76.08-86.28,129.77-86.28,129.77s-63.81-69.64-55.24-145.71,86.28-129.78,86.28-129.78S814.46,924,805.89,1000Z" transform="translate(188.54 183.01)"/><path class="cls-4" d="M750.65,854.32S814.46,924,805.89,1000s-86.28,129.77-86.28,129.77" transform="translate(188.54 183.01)"/><path class="cls-5" d="M527.39,957c2.23,89.51-79.21,164.15-79.21,164.15s-85.07-70.48-87.31-160S440.08,797,440.08,797,525.15,867.48,527.39,957Z" transform="translate(188.54 183.01)"/><path class="cls-6" d="M440.08,797s85.07,70.49,87.31,160-79.21,164.15-79.21,164.15" transform="translate(188.54 183.01)"/><path class="cls-3" d="M62.54,843.35c53.29-55,147.61-50,147.61-50s7.93,94.12-45.36,149.08-147.61,50-147.61,50S9.26,898.31,62.54,843.35Z" transform="translate(188.54 183.01)"/><path class="cls-4" d="M17.18,992.44S9.26,898.31,62.54,843.35s147.61-50,147.61-50" transform="translate(188.54 183.01)"/><path class="cls-5" d="M-18.19,790c32.41-76.17,129.53-107.78,129.53-107.78s44.57,91.89,12.17,168.06S-6,958-6,958-50.59,866.12-18.19,790Z" transform="translate(188.54 183.01)"/><path class="cls-6" d="M-6,958S-50.59,866.12-18.19,790,111.34,682.17,111.34,682.17" transform="translate(188.54 183.01)"/><path class="cls-3" d="M367.87,1317.57c-5.6-100.7,83.52-187.54,83.52-187.54s98.2,76.42,103.81,177.12-83.52,187.54-83.52,187.54S373.48,1418.27,367.87,1317.57Z" transform="translate(188.54 183.01)"/><path class="cls-4" d="M471.68,1494.69s-98.2-76.42-103.81-177.12S451.39,1130,451.39,1130" transform="translate(188.54 183.01)"/><path class="cls-5" d="M208.62,1175.75c40.39-65,12.63-155.33,12.63-155.33s-93.23,15.16-133.61,80.2S75,1255.94,75,1255.94,168.24,1240.78,208.62,1175.75Z" transform="translate(188.54 183.01)"/><path class="cls-4" d="M75,1255.94s93.23-15.16,133.61-80.19,12.63-155.33,12.63-155.33" transform="translate(188.54 183.01)"/><path class="cls-3" d="M135.34,1211.2c29-93.77-34.62-196.79-34.62-196.79s-110.76,49-139.8,142.76S-4.46,1354-4.46,1354,106.3,1305,135.34,1211.2Z" transform="translate(188.54 183.01)"/><path class="cls-4" d="M9.54,1354s110.76-49,139.8-142.76-34.62-196.79-34.62-196.79" transform="translate(188.54 183.01)"/><path class="cls-5" d="M473.58,1113.15c-11.86-103.7-117.93-176.73-117.93-176.73s-86.83,95.1-75,198.8,117.93,176.72,117.93,176.72S485.45,1216.84,473.58,1113.15Z" transform="translate(188.54 183.01)"/><path class="cls-6" d="M398.61,1311.94s86.84-95.1,75-198.79S355.65,936.42,355.65,936.42" transform="translate(188.54 183.01)"/><path class="cls-5" d="M121.47,981.53c9-86.37-64.09-164.74-64.09-164.74s-87.61,61.67-96.58,148,64.08,164.74,64.08,164.74S112.49,1067.9,121.47,981.53Z" transform="translate(188.54 183.01)"/><path class="cls-6" d="M24.88,1129.57s87.61-61.67,96.59-148S57.38,816.79,57.38,816.79" transform="translate(188.54 183.01)"/><path class="cls-5" d="M648.8,908c-9.65,85.66-97.14,146.12-97.14,146.12s-71.85-78.41-62.2-164.07S586.6,744,586.6,744,658.45,822.39,648.8,908Z" transform="translate(188.54 183.01)"/><path class="cls-6" d="M586.6,744S658.45,822.39,648.8,908s-97.14,146.12-97.14,146.12" transform="translate(188.54 183.01)"/><path class="cls-6" d="M134.86,1084.31c37.69-102.86,163.92-151.19,163.92-151.19s65.12,118.44,27.43,221.3S162.29,1305.6,162.29,1305.6,97.17,1187.16,134.86,1084.31Z" transform="translate(188.54 183.01)"/><path class="cls-4" d="M162.29,1305.6s-65.12-118.44-27.43-221.29S298.78,933.12,298.78,933.12" transform="translate(188.54 183.01)"/><path class="cls-5" d="M620.26,1149.39c10.4,100.12-74.29,191-74.29,191s-101.56-71.49-112-171.61,74.29-191,74.29-191S609.85,1049.27,620.26,1149.39Z" transform="translate(188.54 183.01)"/><path class="cls-6" d="M508.29,977.78s101.56,71.49,112,171.61-74.29,191-74.29,191" transform="translate(188.54 183.01)"/><path class="cls-3" d="M690.58,1041.75c34.75,68.21-.53,155.83-.53,155.83s-91.62-23-126.37-91.19.53-155.83.53-155.83S655.83,973.53,690.58,1041.75Z" transform="translate(188.54 183.01)"/><path class="cls-4" d="M564.21,950.56s91.62,23,126.37,91.19-.53,155.83-.53,155.83" transform="translate(188.54 183.01)"/><path class="cls-5" d="M818.31,1351c13,124.9-92.68,238.24-92.68,238.24s-126.7-89.19-139.68-214.1,92.68-238.24,92.68-238.24S805.33,1226.09,818.31,1351Z" transform="translate(188.54 183.01)"/><path class="cls-6" d="M678.63,1136.9s126.7,89.19,139.68,214.1-92.68,238.24-92.68,238.24" transform="translate(188.54 183.01)"/><path class="cls-5" d="M865.67,1122.4c52.33,102.72-.79,234.66-.79,234.66s-138-34.6-190.29-137.32.79-234.66.79-234.66S813.34,1019.68,865.67,1122.4Z" transform="translate(188.54 183.01)"/><path class="cls-6" d="M675.38,985.08s138,34.6,190.29,137.32-.79,234.66-.79,234.66" transform="translate(188.54 183.01)"/><path class="cls-5" d="M654.89,1220c-8.57,76.08-86.28,129.77-86.28,129.77s-63.81-69.64-55.24-145.71,86.28-129.78,86.28-129.78S663.46,1144,654.89,1220Z" transform="translate(188.54 183.01)"/><path class="cls-6" d="M599.65,1074.32S663.46,1144,654.89,1220s-86.28,129.77-86.28,129.77" transform="translate(188.54 183.01)"/><path class="cls-6" d="M683.18,1223.23c-12,106.48-120.77,181.65-120.77,181.65s-89.32-97.48-77.32-204,120.76-181.65,120.76-181.65S695.17,1116.74,683.18,1223.23Z" transform="translate(188.54 183.01)"/><path class="cls-5" d="M605.85,1019.26s89.32,97.48,77.33,204-120.77,181.65-120.77,181.65" transform="translate(188.54 183.01)"/><path class="cls-3" d="M225.17,1276.35c-4.86-94.47,79.07-175.57,79.07-175.57s91.81,72.06,96.67,166.54-79.08,175.57-79.08,175.57S230,1370.83,225.17,1276.35Z" transform="translate(188.54 183.01)"/><path class="cls-4" d="M321.83,1442.89s-91.81-72.06-96.66-166.54,79.07-175.57,79.07-175.57" transform="translate(188.54 183.01)"/></svg>